<?xml version="1.0" encoding="utf-8"?>
<!-- Generator: Adobe Illustrator 13.0.0, SVG Export Plug-In . SVG Version: 6.00 Build 14948)  -->
<svg version="1.2" baseProfile="tiny" id="Layer_1" xmlns="http://www.w3.org/2000/svg" xmlns:xlink="http://www.w3.org/1999/xlink"
	 x="0px" y="0px" width="375.4px" height="74.166px" viewBox="0 0 375.4 74.166" xml:space="preserve">
<path fill="#EFF0F8" d="M72.776,37.778c0-20.065-16.324-36.389-36.389-36.389C16.323,1.389,0,17.713,0,37.778
	c0,20.064,16.323,36.388,36.387,36.388C56.452,74.166,72.776,57.842,72.776,37.778L72.776,37.778z M60.565,36.85
	c0,2.414-1.962,4.376-4.375,4.376l-26.036-0.007c-2.4,0-4.352-1.953-4.352-4.351c0-2.4,1.952-4.352,4.352-4.352
	c7.033,0,14.066,0,21.099,0c-0.729-2.553-2.098-4.881-3.997-6.785c-2.972-2.966-6.921-4.602-11.117-4.604
	c-4.196,0.002-8.145,1.638-11.118,4.606c-2.967,2.973-4.603,6.921-4.605,11.116c0.002,4.197,1.638,8.146,4.607,11.119
	c2.973,2.968,6.92,4.603,11.117,4.604c2.398,0,4.351,1.952,4.351,4.352c0,2.401-1.952,4.353-4.351,4.353
	c-13.467-0.003-24.424-10.96-24.426-24.428c0.002-13.466,10.959-24.423,24.426-24.423C49.605,12.426,60.563,23.384,60.565,36.85
	L60.565,36.85L60.565,36.85z"/>
<path fill="#EFF0F8" d="M72.776,37.778c0-20.065-16.324-36.389-36.389-36.389C16.323,1.389,0,17.713,0,37.778
	c0,20.064,16.323,36.388,36.387,36.388C56.452,74.166,72.776,57.842,72.776,37.778L72.776,37.778z M60.565,36.85
	c0,2.414-1.962,4.376-4.375,4.376l-26.036-0.007c-2.4,0-4.352-1.953-4.352-4.351c0-2.4,1.952-4.352,4.352-4.352
	c7.033,0,14.066,0,21.099,0c-0.729-2.553-2.098-4.881-3.997-6.785c-2.972-2.966-6.921-4.602-11.117-4.604
	c-4.196,0.002-8.145,1.638-11.118,4.606c-2.967,2.973-4.603,6.921-4.605,11.116c0.002,4.197,1.638,8.146,4.607,11.119
	c2.973,2.968,6.92,4.603,11.117,4.604c2.398,0,4.351,1.952,4.351,4.352c0,2.401-1.952,4.353-4.351,4.353
	c-13.467-0.003-24.424-10.96-24.426-24.428c0.002-13.466,10.959-24.423,24.426-24.423C49.605,12.426,60.563,23.384,60.565,36.85
	L60.565,36.85L60.565,36.85z"/>
<path fill="#EFF0F8" d="M111.694,41.382c0-3.938-1.175-7.106-3.523-9.506c-2.348-2.399-5.396-3.599-9.144-3.599
	c-3.53,0-6.465,1.2-8.806,3.599c-2.341,2.4-3.511,5.415-3.511,9.046c0,3.545,1.173,6.494,3.521,8.85s5.389,3.533,9.124,3.533
	c2.406,0,4.485-0.428,6.235-1.28c1.749-0.854,3.252-2.169,4.507-3.948l-5.032-2.362c-1.604,1.561-3.522,2.341-5.754,2.341
	c-1.867,0-3.401-0.5-4.604-1.499s-1.943-2.345-2.22-4.036h19.187L111.694,41.382L111.694,41.382z M92.748,37.814
	c0.672-1.472,1.402-2.499,2.192-3.083c1.256-0.934,2.716-1.401,4.382-1.401c1.535,0,2.882,0.416,4.043,1.248
	c1.161,0.831,1.94,1.91,2.333,3.236H92.748L92.748,37.814z M119.628,52.691h3.873l10.129-23.802h-6.054l-6,14.046l-6.014-14.046
	h-6.084L119.628,52.691L119.628,52.691z M135.57,31.515c-2.728,2.48-4.091,5.578-4.091,9.298c0,3.471,1.206,6.421,3.621,8.851
	c2.414,2.428,5.326,3.642,8.739,3.642c2.32,0,4.441-0.552,6.367-1.651c1.925-1.102,3.446-2.63,4.562-4.585
	c1.114-1.954,1.671-4.053,1.671-6.299c0-2.232-0.553-4.311-1.662-6.235c-1.108-1.925-2.651-3.449-4.627-4.572
	c-1.977-1.124-4.087-1.686-6.333-1.686C140.712,28.277,137.962,29.356,135.57,31.515L135.57,31.515L135.57,31.515z M148.595,35.812
	c1.219,1.278,1.83,2.937,1.83,4.978c0,2.043-0.622,3.713-1.864,5.01c-1.241,1.299-2.796,1.948-4.667,1.948
	c-1.869,0-3.415-0.643-4.634-1.926c-1.219-1.282-1.83-2.961-1.83-5.032c0-2.012,0.617-3.665,1.852-4.955
	c1.234-1.291,2.779-1.937,4.635-1.937C145.816,33.899,147.375,34.537,148.595,35.812L148.595,35.812z M158.424,52.691h5.972V19.701
	h-5.972V52.691L158.424,52.691z M175.184,52.691h3.872l10.128-23.802h-6.054l-5.999,14.046l-6.013-14.046h-6.085L175.184,52.691
	L175.184,52.691z M213.181,41.382c0-3.938-1.174-7.106-3.521-9.506c-2.35-2.399-5.399-3.599-9.146-3.599
	c-3.53,0-6.465,1.2-8.806,3.599c-2.34,2.4-3.511,5.415-3.511,9.046c0,3.545,1.175,6.494,3.523,8.85
	c2.348,2.355,5.389,3.533,9.122,3.533c2.407,0,4.484-0.428,6.233-1.28c1.752-0.854,3.254-2.169,4.508-3.948l-5.032-2.362
	c-1.604,1.561-3.523,2.341-5.753,2.341c-1.868,0-3.403-0.5-4.604-1.499c-1.205-0.999-1.944-2.345-2.222-4.036h19.186L213.181,41.382
	L213.181,41.382z M194.235,37.814c0.672-1.472,1.403-2.499,2.191-3.083c1.258-0.934,2.717-1.401,4.383-1.401
	c1.534,0,2.88,0.416,4.044,1.248c1.159,0.831,1.939,1.91,2.333,3.236H194.235L194.235,37.814z M231.989,52.691h3.74l5.229-13.563
	l5.075,13.563h3.785l8.686-23.802h-5.884l-4.792,13.39l-5.058-13.39h-3.575l-5.149,13.542l-4.786-13.542h-5.847L231.989,52.691
	L231.989,52.691z M283.512,41.382c0-3.938-1.175-7.106-3.521-9.506c-2.35-2.399-5.398-3.599-9.146-3.599
	c-3.529,0-6.466,1.2-8.805,3.599c-2.342,2.4-3.513,5.415-3.513,9.046c0,3.545,1.175,6.494,3.521,8.85
	c2.349,2.355,5.391,3.533,9.125,3.533c2.405,0,4.483-0.428,6.234-1.28c1.749-0.854,3.253-2.169,4.506-3.948l-5.032-2.362
	c-1.604,1.561-3.521,2.341-5.752,2.341c-1.869,0-3.402-0.5-4.605-1.499s-1.944-2.345-2.222-4.036h19.187L283.512,41.382
	L283.512,41.382z M264.565,37.814c0.672-1.472,1.404-2.499,2.191-3.083c1.257-0.934,2.718-1.401,4.383-1.401
	c1.534,0,2.883,0.416,4.042,1.248c1.162,0.831,1.94,1.91,2.337,3.236H264.565L264.565,37.814z M303.651,31.515
	c-1.064-1.079-2.222-1.888-3.475-2.427c-1.251-0.54-2.593-0.811-4.021-0.811c-3.103,0-5.739,1.175-7.909,3.523
	c-2.17,2.347-3.255,5.359-3.255,9.036c0,3.543,1.119,6.507,3.364,8.893c2.243,2.384,4.9,3.576,7.976,3.576
	c1.369,0,2.64-0.245,3.812-0.733c1.172-0.488,2.342-1.286,3.507-2.395v2.515h5.974V28.889h-5.974V31.515L303.651,31.515z
	 M302.062,35.715c1.234,1.283,1.854,2.961,1.854,5.032c0,2.114-0.62,3.824-1.854,5.13c-1.235,1.306-2.791,1.958-4.666,1.958
	c-1.819,0-3.348-0.663-4.59-1.99c-1.243-1.328-1.865-3.019-1.865-5.075c0-2.042,0.61-3.716,1.832-5.021
	c1.219-1.306,2.754-1.959,4.603-1.959C299.263,33.789,300.826,34.433,302.062,35.715L302.062,35.715z M313.887,52.691h5.971V19.701
	h-5.971V52.691L313.887,52.691z M324.886,28.889h-3.062v5.142h3.062v18.66h5.972v-18.66h3.545v-5.142h-3.545V10.561h-5.972V28.889
	L324.886,28.889z M336.499,52.691h5.928v-9.559c0-2.554,0.089-4.187,0.261-4.901c0.337-1.385,0.938-2.48,1.809-3.283
	c0.867-0.802,1.905-1.203,3.116-1.203c0.933,0,1.718,0.242,2.352,0.722c0.635,0.481,1.083,1.211,1.344,2.188
	c0.263,0.977,0.395,2.844,0.395,5.6v10.435h5.886V36.962c0-2.742-0.692-4.82-2.078-6.234c-1.619-1.633-3.609-2.451-5.974-2.451
	c-1.211,0-2.404,0.251-3.588,0.754c-1.181,0.504-2.354,1.259-3.521,2.266V0h-5.928V52.691L336.499,52.691z"/>
<path fill="#EFF0F8" d="M364.497,52.613v-6.147h1.663v-1.25h-4.76v1.25h1.653v6.147H364.497L364.497,52.613z M366.694,52.614h1.451
	l0.745-4.561l1.961,4.659h0.4l2.031-4.659l0.665,4.561h1.452l-1.23-7.532h-0.999l-2.096,4.835l-2.019-4.835h-0.986L366.694,52.614
	L366.694,52.614z"/>
</svg>
